<svg  viewbox="0 0 32 32" width="32" height="32" stroke="currentColor" fill="currentColor"><path d="M4.8 9.6a4.8 4.8 0 0 1 4.8-4.8h12.8a4.8 4.8 0 0 1 4.8 4.8v12.8a4.8 4.8 0 0 1-4.8 4.8H9.6a4.8 4.8 0 0 1-4.8-4.8V9.6Zm11.6 2.4a1.2 1.2 0 0 0-1.2 1.2v8a0.4 0.4 0 0 1-0.4 0.4h-1.6a1.2 1.2 0 0 0 0 2.4h1.6A2.8 2.8 0 0 0 17.6 21.2v-8a1.2 1.2 0 0 0-1.2-1.2Zm2 2.8v1.6c0 1.5 1.3 2.8 2.8 2.8h0.8a0.4 0.4 0 0 1 0.4 0.4v1.6a0.4 0.4 0 0 1-0.4 0.4h-2.4a1.2 1.2 0 0 0 0 2.4h2.4a2.8 2.8 0 0 0 2.8-2.8v-1.6a2.8 2.8 0 0 0-2.8-2.8h-0.8a0.4 0.4 0 0 1-0.4-0.4v-1.6a0.4 0.4 0 0 1 0.4-0.4h2.4a1.2 1.2 0 0 0 0-2.4h-2.4a2.8 2.8 0 0 0-2.8 2.8Z"  /></svg>